<svg width="44" height="41" viewBox="0 0 44 41" fill="none" xmlns="http://www.w3.org/2000/svg">
<g filter="url(#filter0_d_4_1082)">
<path d="M20.0611 35.488C21.0718 36.2096 22.4282 36.2096 23.4389 35.488C28.4905 31.8818 33.3281 27.733 36.6744 22.4238C38.3509 19.764 39.0537 17.6129 39.3301 15.854C39.4416 15.2347 39.5 14.5958 39.5 13.9426C39.5 8.26922 35.097 3.67004 29.6655 3.67004C26.4197 3.67004 23.5411 5.31258 21.75 7.84533C19.9589 5.31258 17.0803 3.67004 13.8345 3.67004C8.40304 3.67004 4 8.26922 4 13.9426C4 14.5958 4.05836 15.2347 4.16994 15.854C4.44634 17.6129 5.14906 19.764 6.82555 22.4238C10.1719 27.733 15.0095 31.8818 20.0611 35.488Z" fill="#FBFBFB"/>
<path d="M20.0611 31.17C21.0718 31.8916 22.4282 31.8916 23.4389 31.17C29 28.17 31 27.17 36.6744 22.4238C38.3509 19.764 39.0537 17.6129 39.3301 15.854C39.4416 15.2347 39.5 14.5958 39.5 13.9426C39.5 8.26922 35.097 3.67004 29.6655 3.67004C26.4197 3.67004 23.5411 5.31258 21.75 7.84533C19.9589 5.31258 17.0803 3.67004 13.8345 3.67004C8.40304 3.67004 4 8.26922 4 13.9426C4 14.5958 4.05836 15.2347 4.16994 15.854C4.44634 17.6129 5.14906 19.764 6.82555 22.4238C13 27.17 15 28.17 20.0611 31.17Z" fill="white"/>
</g>
<defs>
<filter id="filter0_d_4_1082" x="0" y="4.39584e-05" width="43.5" height="40.3591" filterUnits="userSpaceOnUse" color-interpolation-filters="sRGB">
<feFlood flood-opacity="0" result="BackgroundImageFix"/>
<feColorMatrix in="SourceAlpha" type="matrix" values="0 0 0 0 0 0 0 0 0 0 0 0 0 0 0 0 0 0 127 0" result="hardAlpha"/>
<feOffset dy="0.33"/>
<feGaussianBlur stdDeviation="2"/>
<feColorMatrix type="matrix" values="0 0 0 0 0 0 0 0 0 0 0 0 0 0 0 0 0 0 0.1 0"/>
<feBlend mode="normal" in2="BackgroundImageFix" result="effect1_dropShadow_4_1082"/>
<feBlend mode="normal" in="SourceGraphic" in2="effect1_dropShadow_4_1082" result="shape"/>
</filter>
</defs>
</svg>
