<svg xmlns="http://www.w3.org/2000/svg" fill="none" viewBox="0 0 46 40" width="16px" height="16px">
    <path class="bg" fill="#FADFEF" d="M13.875 0H32.125C33.8195 0 35.3858 0.882217 36.2354 2.30947L45.3628 17.6905C46.2124 19.1178 46.2124 20.8822 45.3628 22.3095L36.2354 37.6905C35.3858 39.1178 33.8195 40 32.125 40H13.875C12.1805 40 10.6142 39.1178 9.76459 37.6905L0.637207 22.3095C-0.212402 20.8822 -0.212402 19.1178 0.637207 17.6905L9.76459 2.30947C10.6142 0.882217 12.1805 0 13.875 0Z"></path>
    <path class="arrow" stroke="#FADFEF" stroke-width="1.25" d="M27.8995 19.9497L22.9497 24.8995M22.9497 24.8995L18 19.9497M22.9497 24.8995L22.9497 15"></path>
</svg>