<svg width="211" height="390" viewBox="0 0 211 390" fill="none" xmlns="http://www.w3.org/2000/svg">
<path d="M196.243 299.803C204.044 296.842 209.001 289.219 209.043 279.878L209.809 109.749C209.851 100.408 204.962 92.7813 197.188 89.8238L135.002 66.1639L133.844 323.462L196.243 299.803Z" fill="#FF77C9"/>
<path d="M41.0251 78.2144L40.9733 89.7066L73.1971 51.526C77.5118 46.4143 82.9486 44.2316 87.4648 45.9318L133.073 63.0977L133.122 52.3066C133.19 37.1076 128.938 26.3647 122.312 24.236L47.1886 0.0992551C44.5908 -0.735199 41.499 3.75497 39.0743 11.6085L31.7112 35.4585L38.7295 52.3491C40.1886 55.8601 41.0811 65.7628 41.0251 78.2115L41.0251 78.2144Z" fill="#FF77C9"/>
<path d="M71.9076 338.099L40.0276 299.918L39.9758 311.41C39.9198 323.862 38.9381 333.762 37.4474 337.273L30.277 354.163L37.4254 378.013C39.7793 385.87 42.8307 390.357 45.4361 389.522L120.777 365.386C127.422 363.257 131.771 352.514 131.839 337.315L131.888 326.524L86.1249 343.69C81.5934 345.39 76.1763 343.207 71.9076 338.096L71.9076 338.099Z" fill="#FF77C9"/>
<path d="M13.0707 15.5252L1.99795 112.56C1.51171 116.809 1.20109 123.553 1.17061 130.322L1.15184 134.492C1.18026 128.179 1.97071 121.756 3.25791 117.55L27.744 37.4084L15.555 7.62631C14.7821 5.74169 13.8369 8.82405 13.0735 15.5224L13.0707 15.5252Z" fill="#FF77C9"/>
<path d="M0.608167 255.127L0.589396 259.296C0.558919 266.066 0.811656 272.809 1.2568 277.058L11.4558 374.093C12.1588 380.795 13.0792 383.874 13.8662 381.989L26.3233 352.207L2.55887 272.066C1.31238 267.859 0.576927 261.436 0.605346 255.124L0.608167 255.127Z" fill="#FF77C9"/>
<path d="M7.36978 130.736C4.52656 134.093 2.78664 139.503 2.762 144.975L2.31328 244.644C2.28864 250.116 3.97985 255.526 6.79284 258.884L37.9329 296.048L38.8444 93.574L7.36977 130.738L7.36978 130.736Z" fill="#FF77C9"/>
</svg>
